<svg xmlns="http://www.w3.org/2000/svg" width="597.394" height="162.542"><defs><filter color-interpolation-filters="sRGB" id="a"><feFlood flood-opacity=".475" flood-color="#000" result="flood"/><feComposite in2="SourceGraphic" in="flood" operator="in" result="composite1"/><feGaussianBlur stdDeviation="5" result="blur"/><feOffset dx="8" dy="8" result="offset"/><feComposite in2="offset" in="SourceGraphic" result="composite2"/></filter></defs><g transform="translate(12.983 -409.02)" filter="url(#a)"><text y="519.507" x="27.887" style="line-height:125%" font-size="97.099" font-weight="400" letter-spacing="0" word-spacing="0" font-family="Sans"><tspan style="text-align:start;line-height:125%;-inkscape-font-specification:FreeEuro Bold" y="519.507" x="27.887" font-weight="700" font-family="FreeEuro">IOT</tspan></text><path d="M296.73 473.234c28.217 16.29 28.756 58.737.997 78.538-7.677 5.476-8.78 4.91-1.995-1.024 17.473-15.284 17.985-42.178 1.085-57.098l-3.913-3.454.723-3.71c.398-2.04.6-5.732.45-8.2-.34-5.548.157-6.493 2.653-5.052zm-64.766 11.403c7.06-7.742 18.647-14.16 29.04-16.09l6.876-1.274.874 2.897c.48 1.593.674 5.225.43 8.07l-.444 5.17-6.14 1.693c-10.91 3.007-20.4 10.86-25.452 21.06l-2.416 4.88-2.743-.413c-5.144-.773-12.73-3.976-12.792-5.4-.092-2.135 8.346-15.747 12.766-20.593zm33.206 36.395c-28.217 16.29-65.246-4.466-68.515-38.406-.904-9.386.137-10.058 1.885-1.216 4.5 22.775 27.534 36.664 48.905 29.49l4.948-1.663 2.852 2.482c1.568 1.364 4.663 3.384 6.878 4.488 4.972 2.48 5.543 3.383 3.047 4.824zm22.507-61.79c3.175 9.985 2.94 23.228-.587 33.193l-2.333 6.592-2.946-.692c-1.62-.38-4.86-2.028-7.202-3.662l-4.257-2.97 1.605-6.162c2.852-10.953.797-23.097-5.512-32.572l-3.017-4.533 1.728-2.17c3.24-4.066 9.81-9.035 11.072-8.376 1.895.986 9.464 15.1 11.45 21.35zm-48.802 10.314c0-32.582 36.49-54.272 67.518-40.133 8.58 3.91 8.642 5.148.11 2.24-21.973-7.49-45.52 5.514-49.99 27.61l-1.035 5.115-3.575 1.23c-1.967.675-5.263 2.345-7.327 3.71-4.634 3.067-5.7 3.11-5.7.228zm42.258 50.387c-10.235-2.244-21.587-9.068-28.453-17.105l-4.542-5.317 2.072-2.204c1.14-1.213 4.187-3.196 6.773-4.407l4.7-2.203 4.535 4.47c8.06 7.947 19.606 12.24 30.965 11.514l5.434-.347 1.015 2.582c1.9 4.84 2.92 13.013 1.72 13.778-1.804 1.147-17.81.644-24.22-.76z" fill="#5a2ca0"/><text y="519.507" x="317.958" style="line-height:125%" font-size="97.099" font-weight="400" letter-spacing="0" word-spacing="0" font-family="Sans"><tspan style="text-align:start;line-height:125%;-inkscape-font-specification:FreeEuro Bold" y="519.507" x="317.958" font-weight="700" font-family="FreeEuro">BZH</tspan></text></g><path fill="none" d="M10.126 0H587.27v162.542H10.125z"/></svg>