<svg xmlns="http://www.w3.org/2000/svg" width="205.714" height="197.143"><defs><filter color-interpolation-filters="sRGB" id="a"><feFlood flood-opacity=".475" flood-color="#000" result="flood"/><feComposite in2="SourceGraphic" in="flood" operator="in" result="composite1"/><feGaussianBlur stdDeviation="5" result="blur"/><feOffset dx="8" dy="8" result="offset"/><feComposite in2="offset" in="SourceGraphic" result="composite2"/></filter></defs><path d="M470.886 595.304c28.217 16.29 28.755 58.738.997 78.538-7.677 5.476-8.78 4.91-1.996-1.023 17.474-15.286 17.985-42.18 1.086-57.1l-3.913-3.454.723-3.71c.398-2.04.6-5.73.45-8.2-.34-5.547.157-6.493 2.653-5.052zm-64.766 11.403c7.06-7.742 18.647-14.16 29.04-16.088l6.875-1.277.874 2.898c.48 1.594.674 5.225.43 8.07l-.444 5.172-6.14 1.69c-10.91 3.01-20.4 10.86-25.452 21.06l-2.417 4.88-2.742-.41c-5.143-.775-12.73-3.978-12.792-5.402-.092-2.134 8.347-15.746 12.767-20.593zm33.205 36.395c-28.216 16.29-65.246-4.465-68.514-38.405-.903-9.387.138-10.06 1.885-1.216 4.5 22.776 27.535 36.665 48.906 29.49l4.95-1.662 2.85 2.48c1.57 1.366 4.664 3.386 6.878 4.49 4.973 2.48 5.543 3.383 3.047 4.824zm22.508-61.79c3.174 9.986 2.94 23.23-.587 33.194l-2.333 6.59-2.946-.69c-1.62-.38-4.862-2.028-7.203-3.662l-4.258-2.97 1.605-6.163c2.852-10.953.798-23.097-5.51-32.572l-3.02-4.532 1.73-2.17c3.24-4.066 9.808-9.035 11.072-8.377 1.895.987 9.463 15.1 11.45 21.352zm-48.802 10.314c0-32.582 36.49-54.272 67.518-40.132 8.58 3.91 8.642 5.148.11 2.24-21.972-7.49-45.518 5.513-49.99 27.61l-1.035 5.114-3.575 1.23c-1.966.675-5.263 2.346-7.326 3.71-4.634 3.068-5.7 3.11-5.7.228zm42.26 50.387c-10.236-2.243-21.588-9.068-28.454-17.105l-4.542-5.316 2.072-2.206c1.14-1.213 4.187-3.196 6.772-4.407l4.7-2.203 4.536 4.47c8.06 7.948 19.605 12.24 30.965 11.514l5.433-.346 1.014 2.582c1.902 4.84 2.922 13.012 1.72 13.777-1.803 1.147-17.81.645-24.218-.76z" fill="#5a2ca0" filter="url(#a)" transform="translate(-328.57 -513.79)"/><path fill="none" d="M0 0h205.715v197.144H0z"/></svg>